<svg width="24" height="24" viewBox="0 0 24 24" fill="none" xmlns="http://www.w3.org/2000/svg">
<circle cx="12" cy="12" r="12" fill="#ED6E74"/>
<g clip-path="url(#clip0_1622_14)">
<path d="M19.8995 4.00252C19.666 3.91352 15.9005 5.98802 14.915 8.56802C14.332 10.094 14.072 11.597 14.089 12.624C13.3545 12.2295 12.6285 12 12 12C11.3715 12 10.6455 12.229 9.91102 12.6245C9.92752 11.597 9.66802 10.094 9.08502 8.56852C8.10002 5.98852 4.33402 3.91352 4.10052 4.00252C3.87302 4.08952 6.23452 12.0245 7.61302 14.4215C6.40252 15.7025 5.50002 17.3305 5.50002 18.914C5.50002 20.531 6.31752 21.484 7.50002 21.884C8.76552 22.3125 10 21.414 12 21.414C14 21.414 15.2345 22.313 16.5 21.884C17.6825 21.4835 18.5 20.531 18.5 18.914C18.5 17.331 17.5975 15.7025 16.3875 14.422C17.765 12.0245 20.1275 4.08952 19.8995 4.00252Z" fill="#99AAB5"/>
<path d="M9.34599 12.9609C9.25699 12.1909 9.00599 11.1859 8.61749 10.1689C7.85049 8.16091 5.77449 6.54641 5.59299 6.61541C5.43349 6.67641 6.90649 11.6854 7.98449 14.0469C8.40426 13.6442 8.85999 13.2806 9.34599 12.9609V12.9609ZM16.015 14.0469C17.093 11.6854 18.566 6.67641 18.407 6.61591C18.2255 6.54641 16.149 8.16141 15.382 10.1694C14.9935 11.1864 14.7425 12.1909 14.6535 12.9609C15.1395 13.2806 15.5952 13.6442 16.015 14.0469V14.0469Z" fill="#F4ABBA"/>
<path d="M15.5 19C15.5 20.381 13.97 21.5 12.083 21.5C10.1965 21.5 8.6665 20.381 8.6665 19C8.6665 17.619 10.1965 16.5 12.083 16.5C13.97 16.5 15.5 17.619 15.5 19Z" fill="#CCD6DD"/>
<path d="M13.5 19.2891C13.5 20.6701 13.381 20.7891 12 20.7891C10.6195 20.7891 10.5 20.6701 10.5 19.2891C10.5 18.7891 13.5 18.7891 13.5 19.2891V19.2891Z" fill="white"/>
<path d="M9.25 16.9141C9.66421 16.9141 10 16.5783 10 16.1641C10 15.7498 9.66421 15.4141 9.25 15.4141C8.83579 15.4141 8.5 15.7498 8.5 16.1641C8.5 16.5783 8.83579 16.9141 9.25 16.9141Z" fill="#292F33"/>
<path d="M14.75 16.9141C15.1642 16.9141 15.5 16.5783 15.5 16.1641C15.5 15.7498 15.1642 15.4141 14.75 15.4141C14.3358 15.4141 14 15.7498 14 16.1641C14 16.5783 14.3358 16.9141 14.75 16.9141Z" fill="#292F33"/>
<path d="M13.5 16.9141C13.5 17.7426 12.5 18.4141 12 18.4141C11.5 18.4141 10.5 17.7426 10.5 16.9141C10.5 16.0856 13.5 16.0856 13.5 16.9141Z" fill="#F4ABBA"/>
</g>
<defs>
<clipPath id="clip0_1622_14">
<rect width="18" height="18" fill="white" transform="translate(3 4)"/>
</clipPath>
</defs>
</svg>
