<svg width="368" height="368" viewBox="0 0 368 368" fill="none" xmlns="http://www.w3.org/2000/svg">
<circle cx="184" cy="184" r="184" fill="#ED6E74"/>
<g clip-path="url(#clip0_1622_12)">
<path d="M301.554 62.0373C298.064 60.7073 241.791 91.7095 227.063 130.266C218.35 153.071 214.465 175.533 214.719 190.881C203.742 184.985 192.893 181.556 183.5 181.556C174.107 181.556 163.258 184.978 152.281 190.888C152.528 175.533 148.65 153.071 139.937 130.274C125.217 91.717 68.9359 60.7073 65.4463 62.0373C62.0465 63.3375 97.3378 181.922 117.939 217.744C99.8484 236.887 86.3611 261.217 86.3611 284.881C86.3611 309.047 98.5782 323.289 116.25 329.266C135.162 335.67 153.611 322.243 183.5 322.243C213.389 322.243 231.838 335.678 250.75 329.266C268.422 323.281 280.639 309.047 280.639 284.881C280.639 261.224 267.152 236.887 249.069 217.751C269.655 181.922 304.961 63.3375 301.554 62.0373Z" fill="#99AAB5"/>
<path d="M143.837 195.917C142.507 184.41 138.756 169.391 132.95 154.192C121.488 124.184 90.4634 100.056 87.7509 101.087C85.3673 101.999 107.38 176.856 123.491 212.147C129.764 206.128 136.574 200.695 143.837 195.917V195.917ZM243.502 212.147C259.612 176.856 281.625 101.999 279.249 101.095C276.537 100.056 245.505 124.191 234.042 154.2C228.236 169.398 224.485 184.41 223.155 195.917C230.418 200.695 237.229 206.128 243.502 212.147V212.147Z" fill="#F4ABBA"/>
<path d="M235.806 286.167C235.806 306.805 212.941 323.528 184.74 323.528C156.548 323.528 133.683 306.805 133.683 286.167C133.683 265.528 156.548 248.806 184.74 248.806C212.941 248.806 235.806 265.528 235.806 286.167Z" fill="#CCD6DD"/>
<path d="M205.917 290.486C205.917 311.124 204.138 312.902 183.5 312.902C162.869 312.902 161.083 311.124 161.083 290.486C161.083 283.013 205.917 283.013 205.917 290.486V290.486Z" fill="white"/>
<path d="M142.403 254.993C148.593 254.993 153.611 249.974 153.611 243.784C153.611 237.594 148.593 232.576 142.403 232.576C136.213 232.576 131.194 237.594 131.194 243.784C131.194 249.974 136.213 254.993 142.403 254.993Z" fill="#292F33"/>
<path d="M224.597 254.993C230.787 254.993 235.806 249.974 235.806 243.784C235.806 237.594 230.787 232.576 224.597 232.576C218.407 232.576 213.389 237.594 213.389 243.784C213.389 249.974 218.407 254.993 224.597 254.993Z" fill="#292F33"/>
<path d="M205.917 254.993C205.917 267.374 190.972 277.409 183.5 277.409C176.028 277.409 161.083 267.374 161.083 254.993C161.083 242.611 205.917 242.611 205.917 254.993Z" fill="#F4ABBA"/>
</g>
<defs>
<clipPath id="clip0_1622_12">
<rect width="269" height="269" fill="white" transform="translate(49 62)"/>
</clipPath>
</defs>
</svg>
